Coordinates
version=1
nRows=9
nColumns=24
inDegrees=yes

Units are S.I. units (second, meters, Newtons, ...)
Angles are in degrees.

endheader
time	pelvis_tilt	pelvis_list	pelvis_rotation	pelvis_tx	pelvis_ty	pelvis_tz	hip_flexion_r	hip_adduction_r	hip_rotation_r	knee_angle_r	ankle_angle_r	subtalar_angle_r	mtp_angle_r	hip_flexion_l	hip_adduction_l	hip_rotation_l	knee_angle_l	ankle_angle_l	subtalar_angle_l	mtp_angle_l	lumbar_extension	lumbar_bending	lumbar_rotation
      0.01000000	     57.13606908	      4.14908621	     -3.90023028	      1.28690813	      1.04486439	     -0.28783308	     21.85600549	     -5.15715716	      5.01509872	     -5.94774610	    -29.59588422	      0.00000000	      0.00000000	     14.33300100	    -11.14011995	     -5.30684113	    -63.53960644	    -14.06133873	      0.00000000	      0.00000000	      0.00000000	      0.00000000	      0.00000000
      0.02000000	     57.13700071	      4.15292419	     -3.90369349	      1.28695568	      1.04482953	     -0.28782934	     21.85080826	     -5.13420807	      5.00835192	     -5.96176603	    -29.63812366	      0.00000000	      0.00000000	     14.32850412	    -11.14052613	     -5.30328215	    -63.53438501	    -14.06350397	      0.00000000	      0.00000000	      0.00000000	      0.00000000	      0.00000000
      0.03000000	     57.13896977	      4.15447119	     -3.90772213	      1.28696365	      1.04481440	     -0.28782797	     21.84671416	     -5.11771063	      5.00290900	     -5.97286227	    -29.67481329	      0.00000000	      0.00000000	     14.32354573	    -11.14130891	     -5.29980044	    -63.52908494	    -14.06585302	      0.00000000	      0.00000000	      0.00000000	      0.00000000	      0.00000000
      0.04000000	     57.14175621	      4.15389888	     -3.91171551	      1.28694743	      1.04482337	     -0.28781614	     21.84374048	     -5.10916916	      4.99959860	     -5.98009214	    -29.70246914	      0.00000000	      0.00000000	     14.31818689	    -11.14196173	     -5.29665752	    -63.52397084	    -14.06829478	      0.00000000	      0.00000000	      0.00000000	      0.00000000	      0.00000000
      0.05000000	     57.14444800	      4.15289617	     -3.91469561	      1.28693977	      1.04484324	     -0.28780265	     21.84115160	     -5.10817755	      4.99921248	     -5.98321248	    -29.71767525	      0.00000000	      0.00000000	     14.31262055	    -11.14170283	     -5.29412322	    -63.51935013	    -14.07068019	      0.00000000	      0.00000000	      0.00000000	      0.00000000	      0.00000000
      0.06000000	     57.14590512	      4.15365454	     -3.91606006	      1.28695625	      1.04484882	     -0.28781474	     21.83789458	     -5.11244894	      5.00205042	     -5.98304392	    -29.71854736	      0.00000000	      0.00000000	     14.30719095	    -11.13990891	     -5.29219309	    -63.51534942	    -14.07285531	      0.00000000	      0.00000000	      0.00000000	      0.00000000	      0.00000000
      0.07000000	     57.14631858	      4.15573708	     -3.91642001	      1.28697630	      1.04484150	     -0.28784052	     21.83431948	     -5.12075725	      5.00768973	     -5.98081435	    -29.70527657	      0.00000000	      0.00000000	     14.30234302	    -11.13663626	     -5.29037080	    -63.51175250	    -14.07473313	      0.00000000	      0.00000000	      0.00000000	      0.00000000	      0.00000000
      0.08000000	     57.14686471	      4.15713752	     -3.91695293	      1.28697628	      1.04484061	     -0.28784650	     21.83173263	     -5.13267915	      5.01487290	     -5.97810964	    -29.68021285	      0.00000000	      0.00000000	     14.29848513	    -11.13257450	     -5.28787263	    -63.50811678	    -14.07634147	      0.00000000	      0.00000000	      0.00000000	      0.00000000	      0.00000000
      0.09000000	     57.14790600	      4.15793836	     -3.91805238	      1.28696276	      1.04484662	     -0.28784221	     21.83039043	     -5.14589810	      5.02154995	     -5.97720561	    -29.64757247	      0.00000000	      0.00000000	     14.29579383	    -11.12842438	     -5.28418997	    -63.50411439	    -14.07781563	      0.00000000	      0.00000000	      0.00000000	      0.00000000	      0.00000000
